<svg width="68" height="52" viewBox="0 0 68 52" fill="none" xmlns="http://www.w3.org/2000/svg">
<g opacity="0.313361">
<path d="M4.52917 0C2.04617 0 0 2.04614 0 4.52917V46.8014C0 49.2844 2.04617 51.3306 4.52917 51.3306H63.4083C65.8913 51.3306 67.9375 49.2844 67.9375 46.8014V4.52917C67.9375 2.04614 65.8913 0 63.4083 0H4.52917ZM4.52917 3.01941H63.4083C64.2708 3.01941 64.9181 3.66663 64.9181 4.52917V36.1154L52.2741 25.9956C51.7744 25.5951 51.0111 25.5651 50.4813 25.9246L39.3236 33.5912L24.3443 21.4662C24.0315 21.2106 23.6131 21.0886 23.212 21.1359C22.9754 21.1686 22.747 21.2583 22.5515 21.3954L3.01945 34.865V4.52893C3.01945 3.6665 3.66671 3.01917 4.52917 3.01917L4.52917 3.01941ZM39.2528 10.5681C35.9355 10.5681 33.2139 13.2897 33.2139 16.6071C33.2139 19.9243 35.9355 22.6459 39.2528 22.6459C42.5701 22.6459 45.2917 19.9243 45.2917 16.6071C45.2917 13.2897 42.5701 10.5681 39.2528 10.5681ZM39.2528 13.5875C40.9383 13.5875 42.2722 14.9215 42.2722 16.6071C42.2722 18.2925 40.9383 19.6265 39.2528 19.6265C37.5673 19.6265 36.2333 18.2925 36.2333 16.6071C36.2333 14.9215 37.5673 13.5875 39.2528 13.5875ZM23.3299 24.5094L38.3092 36.6343C38.8089 37.0348 39.5723 37.0649 40.102 36.7052L51.2362 29.0386L64.9181 39.984V46.8013C64.9181 47.6638 64.2708 48.311 63.4083 48.311H4.52917C3.66671 48.311 3.01945 47.6638 3.01945 46.8013V38.5215L23.3299 24.5094Z" fill="#A9CBC4"/>
</g>
</svg>
