<svg width="64" height="64" viewBox="0 0 64 64" fill="none" xmlns="http://www.w3.org/2000/svg">
<path d="M54.6274 9.37253C42.1306 -3.12423 21.8694 -3.12423 9.37258 9.37254C-3.1242 21.8693 -3.12419 42.1306 9.37258 54.6274C21.8694 67.1242 42.1306 67.1242 54.6274 54.6274C67.1034 42.122 67.1034 21.8779 54.6274 9.37254L54.6274 9.37253ZM12.0346 51.9653C1.00806 40.9388 1.00806 23.0612 12.0346 12.0346C23.0612 1.00802 40.9388 1.00803 51.9654 12.0346C62.9919 23.0612 62.9919 40.9388 51.9654 51.9653C40.9316 62.9746 23.0683 62.9746 12.0346 51.9653L12.0346 51.9653ZM47.5286 33.331L36.8804 43.9792C36.1453 44.7143 34.9535 44.7143 34.2184 43.9792C33.4833 43.2441 33.4833 42.0522 34.2184 41.3171L41.6521 33.8834L17.8024 33.8811C16.7893 33.8454 15.9864 33.0137 15.9864 32C15.9864 30.9862 16.7893 30.1545 17.8024 30.1188L41.6521 30.1166L34.2184 22.6828C33.4833 21.9477 33.4833 20.7558 34.2184 20.0207C34.9535 19.2856 36.1453 19.2856 36.8804 20.0207L47.5286 30.6689C48.2637 31.404 48.2637 32.5959 47.5286 33.331Z" fill="#00DF82"/>
</svg>
