<svg preserveAspectRatio="none" width="100%" height="100%" overflow="visible" style="display: block;" viewBox="0 0 30 30" fill="none" xmlns="http://www.w3.org/2000/svg">
<g id="Frame 479">
<path id="Vector" d="M22.498 22.1342L22.4999 17.1204L18.056 19.31C16.035 20.3889 13.7121 20.2862 11.7086 19.1896L7.50148 17.1213L7.50331 22.1585C7.50423 23.7984 8.51104 25.1974 10.0134 25.7472C13.0715 26.674 16.5939 26.6842 19.6759 25.8452C21.3297 25.3944 22.4971 23.93 22.498 22.1342ZM17.0657 16.9533L26.3582 12.4407C27.0915 12.0841 27.5045 11.3029 27.4917 10.5096C27.4807 9.76573 27.0805 8.98173 26.361 8.63267L17.1694 4.17321C15.8478 3.36028 14.2453 3.34441 12.9081 4.13308L3.56327 8.6812C2.78958 9.05733 2.4445 9.9748 2.51608 10.7775C2.59318 11.6371 3.15211 12.2139 3.9258 12.5872L12.8466 16.8945C14.1426 17.7009 15.7175 17.728 17.0657 16.9533ZM30 9.52773V25.4373C29.8403 26.0701 29.2658 26.5116 28.6233 26.4416C27.98 26.3706 27.4853 25.833 27.499 25.1312L27.4981 14.7021L25.0027 15.908L24.9981 22.1576C24.9953 25.0602 23.0698 27.5588 20.3312 28.3008C16.8775 29.2369 12.8751 29.2556 9.44626 28.2205C6.84159 27.4346 5.01061 24.9958 5.00694 22.2192L4.99868 15.908L2.71524 14.8113C1.13115 14.0507 0.0674385 12.4911 0.00319395 10.7289C-0.0601333 8.99853 0.820939 7.21027 2.40595 6.43747L11.9078 1.80068C13.9168 0.687218 16.3535 0.741351 18.324 1.92388L27.3228 6.28067C28.1782 6.69507 28.8831 7.24667 29.4053 8.0512C29.7182 8.50387 29.8688 9.01253 30 9.52773Z" fill="var(--fill-0, #FFC800)"/>
</g>
</svg>
