<svg preserveAspectRatio="none" width="100%" height="100%" overflow="visible" style="display: block;" viewBox="0 0 24.9444 30" fill="none" xmlns="http://www.w3.org/2000/svg">
<g id="Frame 475">
<path id="Vector" d="M12.4773 26.495L19.3493 19.768C23.4093 15.793 23.4743 9.36 19.4983 5.409C15.5063 1.442 9.02533 1.569 5.18933 5.674C1.34833 9.786 1.66533 16.16 5.82233 20.009L12.4773 26.495ZM13.1743 0L13.4413 0.0519981C18.1473 0.398998 22.2053 3.439 23.9613 7.645C25.8983 12.283 24.9233 17.578 21.4733 21.14L15.0313 27.498L21.2023 27.5L21.1853 30H3.75833L3.74233 27.501L9.91733 27.497L3.52833 21.201C0.000329273 17.601 -0.98167 12.207 1.03533 7.52C2.87333 3.251 7.06333 0.276999 11.7703 0.000999451L13.1743 0Z" fill="var(--fill-0, #FFC800)"/>
<path id="Vector_2" d="M16.2164 14.2349L16.2144 9.55986C16.1634 9.48586 16.0564 9.45186 15.9834 9.49486L12.4724 11.2559L8.96342 9.49586C8.91842 9.47386 8.81842 9.44386 8.79942 9.47986L8.72842 9.61486L8.73042 14.2359L12.4744 16.1109L16.2164 14.2349ZM12.4794 18.9019L6.23442 15.7789L6.23242 7.98786L12.4734 4.86186L18.7114 7.98586L18.7124 15.7749L12.4794 18.9019Z" fill="var(--fill-0, #FFC800)"/>
</g>
</svg>
