<svg preserveAspectRatio="none" width="100%" height="100%" overflow="visible" style="display: block;" viewBox="0 0 30 30" fill="none" xmlns="http://www.w3.org/2000/svg">
<g id="Frame 476">
<path id="Vector" d="M27.4941 22.466C27.4931 21.768 26.9013 21.254 26.2536 21.254L23.0252 21.253C22.3525 21.245 21.7278 20.997 21.2548 20.524L19.4854 18.753L16.231 18.755C15.5404 18.755 15.0245 19.306 14.9985 19.983L15.0045 26.311C15.0055 26.963 15.5823 27.5 16.233 27.5L26.2446 27.502C26.9472 27.502 27.4981 26.943 27.4981 26.254L27.4941 22.466ZM27.4961 6.234C27.4951 5.528 26.9153 5.002 26.2496 5.002L23.0272 5C22.3745 4.991 21.7598 4.769 21.2947 4.308L19.4724 2.501L16.2889 2.5C15.5983 2.5 15.0434 2.991 14.9985 3.694L15.0025 10.019C15.0025 10.695 15.5524 11.249 16.235 11.249L26.3035 11.247C27.0061 11.246 27.5011 10.621 27.5001 9.966L27.4961 6.234ZM1.5229 0C2.0638 0.171 2.49992 0.618999 2.49992 1.239L2.50091 6.252H12.4946L12.5076 3.636C12.5175 1.778 13.9826 0.268999 15.761 0H19.8626C20.4065 0.116999 20.8945 0.372 21.3067 0.784L23.0152 2.497L26.4283 2.516C28.2835 2.526 29.7535 4.039 30 5.801V10.489C29.7236 12.284 28.1987 13.746 26.3035 13.745L16.1771 13.743C14.1163 13.743 12.4886 11.993 12.4986 9.973L12.4976 8.751H2.49892L2.52087 18.922C2.52486 20.898 4.22441 22.434 6.1455 22.502H12.4986L12.5056 19.92C12.5106 17.926 14.1712 16.258 16.1691 16.258H19.5632C20.1979 16.258 20.7907 16.532 21.2308 16.971L23.0182 18.753L26.3714 18.761C28.2406 18.767 29.7435 20.253 30 22.033V26.721C29.7515 28.428 28.4122 29.765 26.6358 30L15.8498 29.999C13.9666 29.738 12.5694 28.244 12.4996 26.364L12.4956 25.004L6.21237 24.999C2.97595 24.997 0.310368 22.477 0 19.338V0.996C0.13273 0.501999 0.50098 0.132999 1.01993 0H1.5229Z" fill="var(--fill-0, #FFC800)"/>
</g>
</svg>
