<svg preserveAspectRatio="none" width="100%" height="100%" overflow="visible" style="display: block;" viewBox="0 0 30 30" fill="none" xmlns="http://www.w3.org/2000/svg">
<g id="Frame 472">
<path id="Vector" d="M23.7661 20.9L27.5168 23.807V12.716L23.7642 15.628L23.7661 20.9ZM21.2666 23.433L21.2647 13.066C21.2647 10.944 19.6464 9.143 17.5841 9.143L6.15799 9.146C4.18124 9.146 2.51201 10.886 2.51394 12.943L2.52066 23.642C2.52162 25.674 4.2168 27.378 6.15703 27.379L17.5235 27.387C19.6108 27.388 21.2666 25.624 21.2666 23.433ZM18.1174 30H5.6871C2.71959 29.706 0.32097 27.222 0 24.131V12.393C0.348838 9.03 3.09437 6.511 6.39919 6.515L13.8612 6.523L10.543 3.057C10.27 2.771 9.95964 2.608 9.55122 2.611L1.29445 2.613C0.640016 2.613 0.157603 2.185 0 1.573V1.023C0.181627 0.375004 0.681339 -0.000995755 1.35211 3.69549e-06L9.61369 0.00600421C10.567 0.00700366 11.4857 0.367002 12.1584 1.067L17.4044 6.527C20.6487 6.482 23.375 8.978 23.7382 12.384L26.1042 10.569C26.8316 10.012 27.7821 9.941 28.6239 10.374C29.2793 10.712 30 11.482 30 12.41V24.115C30 25.035 29.2802 25.82 28.6316 26.155C27.783 26.594 26.8259 26.516 26.1022 25.959L23.7373 24.138C23.3961 27.319 21.0494 29.632 18.1174 30Z" fill="var(--fill-0, #FFC800)"/>
</g>
</svg>
