<svg preserveAspectRatio="none" width="100%" height="100%" overflow="visible" style="display: block;" viewBox="0 0 30 30" fill="none" xmlns="http://www.w3.org/2000/svg">
<g id="Frame 478">
<path id="Vector" d="M8.21733 21.2382L4.1987 21.2482C5.85731 24.081 8.50209 26.1548 11.7084 27.0327C10.2866 25.2019 9.09959 23.331 8.21733 21.2382ZM7.38502 18.7384C6.69061 16.1926 6.73057 13.6699 7.38203 11.2331L3.07364 11.2361C2.30429 13.7119 2.31528 16.3156 3.07764 18.7424L7.38502 18.7384ZM19.0233 8.72827C17.9512 6.53445 16.5853 4.7196 15.0016 2.98975C13.395 4.7326 12.0301 6.59245 10.974 8.73227L19.0233 8.72827ZM25.8016 8.71927C24.123 5.85951 21.4842 3.79768 18.2879 2.92875C19.7107 4.7816 20.9107 6.63844 21.776 8.73627L25.8016 8.71927ZM8.22432 8.73527C9.09159 6.63944 10.2906 4.7766 11.7064 2.94175C8.50209 3.81968 5.85531 5.89251 4.1967 8.72727L8.22432 8.73527ZM15.8899 0.00099985C22.873 0.429965 28.6022 5.60853 29.7752 12.506L27.2623 12.507L26.9246 11.2351L22.6252 11.2341C22.925 12.444 23.1238 13.6839 23.1258 14.9877H20.6249C20.6189 13.7019 20.4121 12.463 20.0354 11.2351L9.97086 11.2341C9.18352 13.6969 9.18252 16.2776 9.96886 18.7404H15.1795C15.0676 19.2124 15.0026 19.6664 14.9956 20.1453L15.0006 21.2422L10.971 21.2462C12.133 23.598 13.6708 25.6289 15.4732 27.4727L17.1898 27.3077L18.2069 29.6405C13.3031 30.7274 8.35221 29.2845 4.7892 25.9688C-1.29569 20.3063 -1.62741 10.8051 4.05282 4.7386C6.65863 1.95384 10.2376 0.23698 14.0744 4.82583e-07L15.8899 0.00099985Z" fill="var(--fill-0, #FFC800)"/>
<path id="Vector_2" d="M23.9381 22.4976C24.7824 22.5346 25.5288 22.7056 26.2491 23.0806L26.2501 19.4189C25.4848 19.7999 24.6975 19.9768 23.8452 19.9948L20.0004 19.9958L19.9984 22.4966L23.9381 22.4976ZM30 20.9138V21.5587C29.8541 22.2187 29.4115 22.7556 28.7501 23.0106L28.7491 27.5022L26.389 27.4982C26.1742 26.1803 25.4059 25.0174 24.082 25.0104L22.5123 25.0034L23.5904 27.5062C23.8292 28.0612 23.8092 28.6651 23.4575 29.2051C23.2007 29.599 22.7141 29.985 22.1406 29.99L21.0895 30L18.7614 24.6584C18.0141 24.2025 17.5095 23.4475 17.5065 22.5566L17.4995 20.0358C17.4955 18.608 18.6146 17.496 20.0414 17.493L24.064 17.484C25.4029 17.482 26.1752 16.3061 26.391 14.9923L28.751 14.9903L28.752 19.4859C29.4355 19.7349 29.8431 20.2758 30 20.9138Z" fill="var(--fill-0, #FFC800)"/>
</g>
</svg>
