<svg preserveAspectRatio="none" width="100%" height="100%" overflow="visible" style="display: block;" viewBox="0 0 30 28" fill="none" xmlns="http://www.w3.org/2000/svg">
<g id="Frame 480">
<path id="Vector" d="M29.9963 5.74766L30 19.6889C29.8103 21.0365 29.3329 22.3057 28.4083 23.3257C27.9153 23.8576 27.1218 23.8483 26.6288 23.3574C26.1321 22.8619 26.1349 22.0966 26.6031 21.5488C27.2015 20.8517 27.503 19.9801 27.5021 19.0357L27.4929 6.27119C27.492 4.25639 25.8307 2.53927 23.844 2.53927L6.1523 2.53834C4.20783 2.53834 2.5126 4.22186 2.51168 6.21147L2.50619 19.1579C2.50527 21.2166 4.20233 22.8973 6.20453 22.8983L13.7066 22.9029C14.4277 22.9029 14.9821 23.4432 14.9986 24.1506C15.0133 24.8197 14.4891 25.4478 13.7652 25.4478L6.15779 25.4413C2.92587 25.4385 0.316138 22.8721 0 19.6087V5.81859C0.310639 2.60927 2.8938 1.03175e-06 6.10281 1.03175e-06H23.8963C27.1044 -0.000932114 29.6463 2.59247 29.9963 5.74766Z" fill="var(--fill-0, #FFC800)"/>
<path id="Vector_2" d="M23.1247 17.814C23.1247 16.4086 22.0058 15.2691 20.6258 15.2691C19.2467 15.2691 18.1279 16.4086 18.1279 17.814C18.1279 19.2185 19.2467 20.3579 20.6258 20.3579C22.0058 20.3579 23.1247 19.2185 23.1247 17.814ZM20.6276 25.4542L18.9333 27.707C18.7143 27.9982 18.3249 28.0588 18.0252 27.9431C17.6798 27.8115 17.5002 27.5054 17.5002 27.1013L17.5011 21.7578C16.6068 21.0121 15.9928 20.0397 15.7426 18.8937C15.2946 16.8323 16.1577 14.7428 17.8319 13.5903C19.5473 12.4107 21.8006 12.4331 23.4921 13.6407C25.1507 14.8249 25.9745 16.9358 25.4879 18.988C25.2249 20.0966 24.6174 21.0317 23.7524 21.7587L23.7487 27.2236C23.7487 27.595 23.4655 27.8647 23.1888 27.9571C22.8571 28.0672 22.5089 27.9627 22.2935 27.6743L20.6276 25.4542Z" fill="var(--fill-0, #FFC800)"/>
<path id="Vector_3" d="M22.5271 8.9019L7.50463 8.90376C6.77614 8.90376 6.24833 8.31024 6.25017 7.62153C6.252 6.94215 6.77981 6.35609 7.50738 6.35609H22.4913C23.1988 6.35609 23.7183 6.90669 23.7476 7.56553C23.7779 8.22998 23.2876 8.9019 22.5271 8.9019Z" fill="var(--fill-0, #FFC800)"/>
<path id="Vector_4" d="M13.6807 11.4404C14.4339 11.4395 14.98 11.9807 14.9984 12.6909C15.0149 13.3582 14.4871 13.9881 13.7659 13.9881L7.49998 13.99C6.78707 13.99 6.26475 13.4226 6.24918 12.7432C6.2336 12.0955 6.72842 11.4497 7.44042 11.4488L13.6807 11.4404Z" fill="var(--fill-0, #FFC800)"/>
<path id="Vector_5" d="M11.2763 19.0834L7.5001 19.0871C6.78536 19.088 6.25021 18.5001 6.24838 17.8226C6.24563 17.1339 6.78169 16.5403 7.4946 16.5403H11.2498C11.9425 16.5403 12.4703 17.1003 12.496 17.7657C12.5207 18.432 12.0158 19.0824 11.2763 19.0834Z" fill="var(--fill-0, #FFC800)"/>
</g>
</svg>
