<svg preserveAspectRatio="none" width="100%" height="100%" overflow="visible" style="display: block;" viewBox="0 0 29.999 30" fill="none" xmlns="http://www.w3.org/2000/svg">
<g id="Frame 473">
<path id="Vector" d="M27.498 21.25H25V23.748H27.498V21.25ZM4.99902 21.25H2.50101V23.748H4.99902V21.25ZM27.498 16.2397H25V18.7397H27.498V16.2397ZM7.49902 16.2397V27.4897L22.5 27.5V16.25L7.49902 16.2397ZM4.99902 16.2397H2.50101V18.7397H4.99902V16.2397ZM27.498 11.2397H25V13.7407H27.498V11.2397ZM4.99902 11.2397H2.50101V13.7407H4.99902V11.2397ZM27.498 6.25H25V8.74805H27.498V6.25ZM4.99902 6.25H2.50101V8.74805H4.99902V6.25ZM22.5 2.5H7.50101V13.75H22.5V2.5ZM29.999 30H27.48L27.499 26.2397H24.999L24.985 30H4.98102L5 26.2397H2.5L2.496 30H0V0H2.50101V3.75H4.99701L5.00302 0H25L25.001 3.73975L27.498 3.75V0H29.999V30Z" fill="var(--fill-0, #FFC800)"/>
</g>
</svg>
