<svg preserveAspectRatio="none" width="100%" height="100%" overflow="visible" style="display: block;" viewBox="0 0 29.9998 29.9995" fill="none" xmlns="http://www.w3.org/2000/svg">
<g id="Frame 477">
<path id="Vector" d="M19.883 26.502C19.371 24.079 17.304 22.489 14.971 22.5C12.638 22.511 10.597 24.145 10.121 26.505C13.234 27.825 16.768 27.834 19.883 26.502ZM15.879 0L16.232 0.0580006L17.538 0.206001C18.289 0.291 18.844 0.891001 18.736 1.655C18.638 2.346 17.973 2.853 17.233 2.701C12.807 1.901 8.353 3.536 5.487 6.902C0.689999 12.538 1.814 21.029 7.857 25.236C8.84 22.106 11.709 20.025 14.937 20C18.232 19.975 21.131 22.06 22.149 25.236C26.173 22.422 28.185 17.546 27.29 12.717C27.167 12.052 27.604 11.452 28.206 11.294C28.825 11.13 29.533 11.468 29.704 12.123C29.978 13.169 30.039 14.742 29.976 15.867C29.776 19.391 28.331 22.676 25.973 25.211C20.303 31.307 10.79 31.627 4.728 25.916C2.058 23.4 0.348 19.964 0.0529995 16.235L0 15.937L0.0219994 14.071C0.507 6.531 6.536 0.495001 14.07 0.0240002L15.879 0Z" fill="var(--fill-0, #FFC800)"/>
<path id="Vector_2" d="M24.024 0.00198174C24.603 0.174982 25.003 0.655981 25.003 1.29398L25.001 4.99998L28.816 5.00898C29.515 5.00998 30.023 5.65098 29.999 6.29698C29.974 6.93898 29.46 7.49898 28.771 7.49998L25.003 7.50298L24.995 11.304C24.993 12.015 24.355 12.526 23.704 12.5C23.05 12.473 22.501 11.945 22.501 11.254L22.5 7.49998L18.808 7.50598C18.072 7.50698 17.5 6.96198 17.502 6.24398C17.503 5.53898 18.072 4.99798 18.81 4.99898L22.501 5.00298L22.499 1.29098C22.498 0.648981 22.909 0.154982 23.513 0.00198174H24.024Z" fill="var(--fill-0, #FFC800)"/>
<path id="Vector_3" d="M17.498 12.502C17.498 11.123 16.38 10.004 15 10.004C13.621 10.004 12.503 11.123 12.503 12.502C12.503 13.881 13.621 15 15 15C16.38 15 17.498 13.881 17.498 12.502ZM19.999 12.501C19.999 15.262 17.761 17.5 15 17.5C12.24 17.5 10.002 15.262 10.002 12.501C10.002 9.74095 12.24 7.50195 15 7.50195C17.761 7.50195 19.999 9.74095 19.999 12.501Z" fill="var(--fill-0, #FFC800)"/>
</g>
</svg>
