<svg width="51" height="50" viewBox="0 0 51 50" fill="none" xmlns="http://www.w3.org/2000/svg">
<path d="M8.69101 4.32655C8.69101 3.89638 8.6818 3.52614 8.69248 3.15651C8.74423 1.38027 10.1824 -0.00547689 11.9621 1.62746e-05C13.7183 0.00563151 15.1447 1.37965 15.2053 3.13149C15.2181 3.5027 15.2071 3.87477 15.2071 4.28615H30.4237C30.4237 3.93031 30.4088 3.56447 30.4262 3.19997C30.5067 1.50746 31.7289 0.160173 33.3028 0.0173503C35.0325 -0.13951 36.4967 0.873551 36.8546 2.53786C36.9739 3.09242 36.9428 3.67934 36.9855 4.32655C37.4049 4.32655 37.8228 4.31447 38.2398 4.32887C39.273 4.36488 40.3311 4.28407 41.3337 4.48158C43.9765 5.00197 45.6485 7.1996 45.652 10.0081C45.6596 16.0526 45.6593 22.0973 45.6448 28.1419C45.6437 28.6015 45.7716 28.9072 46.1098 29.2343C49.6149 32.6266 50.8469 36.7372 49.4669 41.4054C48.0802 46.0958 44.7986 48.9636 39.9799 49.7938C35.7514 50.5224 32.109 49.1673 29.1697 46.0193C28.9145 45.7457 28.6709 45.6339 28.2985 45.6345C20.7585 45.6449 13.2185 45.6456 5.67844 45.6403C2.97031 45.6386 0.822603 44.058 0.187776 41.582C0.0549027 41.063 0.00949256 40.5087 0.00894325 39.9706C-0.00137169 29.9868 -0.00204308 20.0031 0.00326698 10.0191C0.00515907 6.63783 2.3198 4.33791 5.70725 4.32704C6.67447 4.32387 7.64194 4.32655 8.69101 4.32655ZM2.16672 15.2283V15.6463C2.16672 23.7953 2.16635 31.9442 2.16892 40.0935C2.16892 40.313 2.17948 40.5363 2.22025 40.7514C2.53818 42.431 3.82688 43.4492 5.65067 43.4503C12.6973 43.4535 19.744 43.4516 26.7906 43.4516H27.3097C25.1785 38.3237 25.6504 33.5751 29.615 29.6098C33.5794 25.6444 38.3285 25.1745 43.4316 27.2794V15.2283H2.16672ZM47.8194 38.0138C47.8141 32.6214 43.4217 28.2405 38.0251 28.2453C32.6316 28.2501 28.2505 32.6408 28.2548 38.0369C28.259 43.4276 32.6535 47.8115 38.0482 47.8069C43.4403 47.8023 47.8247 43.4079 47.8194 38.0138ZM2.17911 13.0032H43.4577C43.4577 11.8676 43.4799 10.766 43.4522 9.66554C43.4141 8.14406 42.3879 6.80336 40.8899 6.6144C39.6106 6.4529 38.2948 6.58095 36.9803 6.58095C36.9433 7.1559 36.9748 7.74196 36.8575 8.29653C36.5061 9.95522 35.0349 10.979 33.3117 10.8267C31.7182 10.6857 30.4894 9.31703 30.4238 7.60133C30.4105 7.25282 30.4218 6.90297 30.4218 6.55361H15.2099C15.2099 6.92629 15.215 7.26308 15.209 7.59987C15.1767 9.4225 13.7675 10.8334 11.9721 10.8436C10.1521 10.8538 8.72025 9.438 8.68991 7.59462C8.68405 7.24501 8.68906 6.89504 8.68906 6.52541C7.49729 6.52541 6.37717 6.49745 5.25894 6.53212C3.64969 6.58193 2.29508 7.84535 2.19351 9.45192C2.11972 10.6176 2.17911 11.7918 2.17911 13.0032ZM13.0442 5.40602C13.0442 4.72878 13.0562 4.0508 13.0409 3.37392C13.0243 2.63625 12.5839 2.16347 11.9464 2.16518C11.311 2.16664 10.8655 2.64296 10.8584 3.37941C10.8454 4.73415 10.8467 6.08888 10.8578 7.44374C10.8639 8.18666 11.2939 8.66481 11.9267 8.67836C12.5799 8.6924 13.0285 8.20424 13.042 7.43788C13.054 6.76076 13.0445 6.08327 13.0442 5.40602ZM34.7757 5.41298C34.7757 4.71913 34.7843 4.02504 34.7732 3.33107C34.7622 2.64638 34.3096 2.1675 33.6943 2.16444C33.0728 2.1609 32.6217 2.62648 32.6157 3.3224C32.6038 4.71047 32.6048 6.0984 32.6143 7.48622C32.6192 8.2079 33.0793 8.69252 33.711 8.67922C34.3237 8.6664 34.7641 8.18507 34.7738 7.49501C34.7832 6.80116 34.7757 6.10707 34.7757 5.41298Z" fill="#ffc800"/>
<path d="M47.8193 38.0139C47.8247 43.4081 43.4403 47.8023 38.0483 47.8069C32.6534 47.8117 28.2588 43.4275 28.2548 38.0371C28.2505 32.6406 32.6316 28.2501 38.0251 28.2453C43.4218 28.2406 47.8141 32.6214 47.8193 38.0139ZM36.4691 39.5838C35.7146 38.8252 35.0121 38.1117 34.3012 37.4064C33.7499 36.86 33.097 36.8117 32.6357 37.2689C32.1748 37.7263 32.2172 38.3855 32.7572 38.9309C33.6537 39.8352 34.5565 40.7335 35.458 41.6328C36.2231 42.3965 36.7195 42.3976 37.4835 41.6342C39.3698 39.7503 41.2545 37.8653 43.1388 35.9795C43.2585 35.8594 43.3823 35.7403 43.4818 35.6039C43.8019 35.1664 43.7573 34.5823 43.3865 34.2068C43.0128 33.8283 42.4316 33.7702 41.9926 34.0883C41.8156 34.2167 41.6635 34.3815 41.5076 34.5372C39.8401 36.2057 38.1742 37.8754 36.4691 39.5838Z" fill="#ffc800"/>
<path d="M6.52507 29.3177C6.52562 29.0295 6.51854 28.741 6.52684 28.4531C6.56615 27.093 7.52361 26.1225 8.87523 26.0853C9.46831 26.0688 10.0624 26.0693 10.6554 26.0837C11.9325 26.1151 12.8862 26.9541 13.0096 28.2298C13.0796 28.9514 13.0774 29.6897 13.0134 30.4123C12.9076 31.6092 12.0729 32.452 10.8783 32.565C10.1562 32.6335 9.41765 32.6357 8.69542 32.5692C7.39922 32.45 6.55724 31.4863 6.52562 30.1821C6.5186 29.8942 6.52452 29.6059 6.52507 29.3177ZM10.8542 29.3767C10.8542 28.2448 10.8542 28.2448 9.73107 28.2448C9.71398 28.2448 9.69701 28.2447 9.6801 28.2448C8.54332 28.2567 8.69646 28.1076 8.69011 29.2542C8.68364 30.41 8.68871 30.4168 9.83867 30.408C11.0115 30.3991 10.8367 30.5697 10.8542 29.3767Z" fill="#ffc800"/>
<path d="M9.75334 23.8794C9.41435 23.8794 9.07444 23.8956 8.73655 23.8766C7.551 23.8092 6.59525 22.8632 6.53752 21.6804C6.50712 21.0547 6.51512 20.4262 6.52677 19.7993C6.55241 18.4158 7.49943 17.4367 8.88328 17.3754C9.47556 17.349 10.0708 17.3499 10.6631 17.3751C11.9476 17.4297 12.8924 18.2743 13.0104 19.5419C13.0789 20.2803 13.0787 21.037 13.0023 21.7743C12.873 23.0242 11.922 23.8458 10.669 23.8854C10.3641 23.8949 10.0586 23.8867 9.75334 23.8867V23.8794ZM9.77421 21.7238C10.854 21.7238 10.854 21.7238 10.854 20.6504V20.5995C10.854 19.5587 10.854 19.5587 9.79527 19.5587C8.68852 19.5587 8.68168 19.5589 8.69041 20.6559C8.70036 21.8953 8.51603 21.7058 9.77421 21.7238Z" fill="#ffc800"/>
<path d="M30.4083 20.64C30.4083 20.9958 30.427 21.353 30.4048 21.7075C30.3319 22.8653 29.3908 23.8114 28.2301 23.8726C27.5875 23.9063 26.9416 23.8986 26.2978 23.8846C25.0164 23.8564 24.0576 23.0202 23.9344 21.7484C23.8629 21.0101 23.8644 20.2539 23.9351 19.5156C24.0492 18.3277 24.9086 17.4959 26.1037 17.3953C26.8105 17.3363 27.5309 17.3324 28.2368 17.3957C29.5308 17.5118 30.3825 18.4753 30.4171 19.7753C30.4249 20.0634 30.4183 20.3518 30.4183 20.64H30.4083ZM27.17 19.5588C26.0889 19.5588 26.0889 19.5588 26.0889 20.6279C26.0889 20.6449 26.0887 20.6619 26.0889 20.6789C26.1035 21.9045 25.9449 21.7113 27.146 21.7219C28.2543 21.7316 28.2624 21.7238 28.2522 20.6275C28.2406 19.4034 28.4429 19.5752 27.17 19.5588Z" fill="#ffc800"/>
<path d="M35.8443 23.8826C35.5221 23.8826 35.1996 23.8953 34.8781 23.8803C33.636 23.8224 32.6729 22.8707 32.6216 21.6332C32.5965 21.0241 32.6027 20.4127 32.6139 19.8028C32.6398 18.4182 33.5841 17.4385 34.9676 17.3756C35.5599 17.3488 36.1551 17.3502 36.7476 17.3748C38.032 17.4286 38.9784 18.272 39.0973 19.539C39.1667 20.2771 39.1663 21.0338 39.0906 21.7713C38.9622 23.0217 38.0115 23.8454 36.7598 23.8853C36.4549 23.895 36.1495 23.8867 35.8443 23.8867V23.8826ZM35.8557 21.7239C36.9417 21.7239 36.9417 21.7239 36.9417 20.6566C36.9417 20.6398 36.9418 20.6228 36.9417 20.6059C36.9229 19.3906 37.1077 19.5712 35.889 19.5609C34.7763 19.5514 34.7691 19.559 34.7781 20.6499C34.7884 21.8963 34.6031 21.7057 35.8557 21.7239Z" fill="#ffc800"/>
<path d="M18.4687 23.8829C18.1465 23.8829 17.8239 23.895 17.5024 23.8808C16.2215 23.8242 15.2476 22.8339 15.2145 21.5487C15.1997 20.9727 15.2051 20.3958 15.212 19.8195C15.2274 18.5232 16.0744 17.5296 17.357 17.4041C18.0953 17.3321 18.8523 17.3321 19.5905 17.4051C20.8714 17.5322 21.7148 18.5266 21.7311 19.8248C21.7378 20.3675 21.7382 20.91 21.7309 21.4525C21.7121 22.8538 20.7324 23.8474 19.3333 23.8863C19.0454 23.8944 18.7569 23.8873 18.4687 23.8873V23.8829ZM18.4305 21.7238C19.7068 21.702 19.5633 21.9292 19.5644 20.6054C19.5653 19.3939 19.6956 19.5692 18.5122 19.5605C17.3759 19.5522 17.3734 19.5587 17.3766 20.6756C17.3803 21.9083 17.2715 21.706 18.4305 21.7238Z" fill="#ffc800"/>
<path d="M21.7289 29.3483C21.7289 29.6704 21.7419 29.9931 21.7265 30.3147C21.6734 31.4289 20.8765 32.3983 19.7705 32.5232C18.9193 32.6195 18.0404 32.6203 17.1889 32.5262C16.0606 32.4017 15.2502 31.418 15.2162 30.2812C15.1971 29.6375 15.1935 28.9921 15.2181 28.3488C15.2652 27.1196 16.2402 26.1418 17.4708 26.0911C18.1139 26.0647 18.7597 26.0676 19.4034 26.0875C20.7173 26.1279 21.6933 27.1198 21.7298 28.4328C21.7382 28.7378 21.731 29.043 21.731 29.3483H21.7289ZM18.4386 30.4099C19.7243 30.3889 19.5595 30.6023 19.5645 29.2846C19.5691 28.059 19.6697 28.247 18.5039 28.2491C17.2315 28.2515 17.3802 28.0417 17.3785 29.3713C17.3768 30.5755 17.2495 30.3934 18.4386 30.4099Z" fill="#ffc800"/>
<path d="M9.74305 41.3217C9.27186 41.2829 8.78907 41.2972 8.3321 41.1955C7.28041 40.9611 6.57203 40.0839 6.53395 39.0124C6.51045 38.3521 6.50837 37.6894 6.53462 37.0293C6.58467 35.7769 7.5796 34.8076 8.83973 34.7703C9.41584 34.7533 9.99281 34.7612 10.5692 34.7668C11.8973 34.7799 12.889 35.629 13.0126 36.939C13.0806 37.6608 13.0808 38.4 13.0114 39.1218C12.8873 40.4089 11.9002 41.2633 10.6105 41.2855C10.3223 41.2904 10.034 41.2862 9.7458 41.2862L9.74305 41.3217ZM10.8541 38.0356C10.8349 36.7777 11.0338 36.9367 9.75618 36.9334C8.49867 36.9303 8.69203 36.8131 8.69294 38.0163C8.69404 39.2507 8.48945 39.1195 9.78773 39.1189C11.0303 39.1185 10.8356 39.2576 10.8541 38.0356Z" fill="#ffc800"/>
<path d="M21.7318 38.0603C21.933 40.2753 20.7894 41.4892 18.4873 41.2885C17.9829 41.2446 17.4615 41.291 16.9741 41.1801C15.961 40.9499 15.2544 40.0459 15.2182 39.0085C15.1952 38.3481 15.1914 37.685 15.2194 37.0251C15.2712 35.8039 16.2644 34.8212 17.4881 34.7734C18.1147 34.7487 18.7431 34.7558 19.3703 34.77C20.6947 34.7995 21.6973 35.8137 21.7301 37.1447C21.7376 37.4499 21.7312 37.7548 21.7318 38.0603ZM19.5669 37.9895C19.5592 36.8056 19.6932 36.9301 18.5108 36.9331C17.2193 36.9367 17.3813 36.7741 17.3782 38.0629C17.3752 39.2468 17.2495 39.1223 18.4318 39.1193C19.7224 39.1162 19.554 39.2775 19.5669 37.9895Z" fill="#ffc800"/>
<path d="M36.4692 39.5838C38.1743 37.8754 39.8403 36.2056 41.5078 34.5373C41.6635 34.3817 41.8156 34.2164 41.9929 34.0881C42.4318 33.7702 43.0127 33.8282 43.3869 34.2069C43.7577 34.5825 43.8023 35.1661 43.482 35.6041C43.3826 35.7401 43.2587 35.8595 43.1389 35.9796C41.2548 37.8649 39.3699 39.7504 37.4839 41.634C36.7196 42.3974 36.2235 42.3964 35.4581 41.6329C34.5565 40.7334 33.6539 39.8354 32.7573 38.9307C32.2172 38.3853 32.1749 37.7263 32.6359 37.2689C33.0972 36.8116 33.7501 36.8597 34.3012 37.4066C35.0122 38.1115 35.7148 38.825 36.4692 39.5838Z" fill="black"/>
</svg>
