<svg width="53" height="53" viewBox="0 0 53 53" fill="none" xmlns="http://www.w3.org/2000/svg">
<path d="M48.0521 39.6396C48.4936 39.6396 48.8565 39.6281 49.2185 39.6416C50.8331 39.7022 52.0257 41.1872 51.6674 42.7618C51.4871 43.555 51.2281 44.3415 50.9062 45.0885C50.4797 46.0786 49.6513 46.5611 48.5802 46.6241C48.435 46.6328 48.2889 46.6268 48.1432 46.6268C33.5255 46.6269 18.9078 46.6269 4.28996 46.6268C2.6004 46.6268 1.78979 46.0452 1.26016 44.4459C1.08316 43.9114 0.880366 43.3817 0.75442 42.8348C0.378963 41.2046 1.56394 39.6905 3.23162 39.6402C3.59069 39.6293 3.95054 39.6386 4.36245 39.6386V38.9457C4.36245 31.4274 4.36216 23.9091 4.36276 16.3909C4.36291 14.4581 5.39616 13.4231 7.32603 13.4231C15.5179 13.4225 23.7096 13.4228 31.9013 13.4228C31.9924 13.4228 32.0834 13.4212 32.1745 13.4233C32.8088 13.438 33.2029 13.7821 33.1928 14.3119C33.1832 14.8241 32.8037 15.1579 32.1974 15.1682C31.6515 15.1775 31.1052 15.1705 30.5592 15.1705C22.8407 15.1705 15.1221 15.1704 7.4038 15.1705C6.35469 15.1705 6.11026 15.4108 6.11026 16.4437C6.10997 23.9619 6.11013 31.4802 6.11013 38.9984V39.6098H14.8642C14.9605 39.2002 15.0426 38.7765 15.1601 38.3628C16.1129 35.0101 19.1607 32.6749 22.6389 32.6501C24.9871 32.6334 27.3356 32.6376 29.6838 32.6484C33.6307 32.6663 36.8831 35.4871 37.4762 39.3913C37.4843 39.4446 37.5028 39.4963 37.5278 39.5921H46.3044V38.9814C46.3044 32.9377 46.3043 26.8939 46.3049 20.8503C46.3049 20.6684 46.2869 20.4821 46.3187 20.3054C46.4032 19.8339 46.6949 19.5508 47.1775 19.5505C47.6609 19.5502 47.9512 19.8353 48.0372 20.3052C48.0695 20.4819 48.0516 20.6682 48.0516 20.8503C48.0521 26.8757 48.0521 32.9011 48.0521 38.9266V39.6396ZM20.9433 41.3842H20.345C14.7934 41.3842 9.24205 41.3842 3.69055 41.3842C3.59945 41.3842 3.50839 41.3821 3.41754 41.3848C2.65849 41.4072 2.28855 41.8955 2.4994 42.616C2.62168 43.0342 2.77008 43.4448 2.90754 43.8586C3.21322 44.7781 3.3517 44.8792 4.30935 44.8792C18.9069 44.8792 33.5046 44.8792 48.1024 44.8792C48.2117 44.8792 48.3208 44.8775 48.43 44.8792C48.932 44.887 49.2527 44.6477 49.4055 44.1718C49.5446 43.7394 49.69 43.3091 49.831 42.8773C50.1768 41.8184 49.8559 41.3844 48.725 41.3843C43.1735 41.3838 37.622 41.3842 32.0705 41.3842H31.4689C31.4605 41.5531 31.4522 41.6592 31.4506 41.7654C31.4322 42.9325 31.2336 43.1317 30.0843 43.1317C27.536 43.1318 24.9877 43.1318 22.4395 43.1317C21.1513 43.1317 20.9899 42.9761 20.9636 41.7117C20.9619 41.6236 20.953 41.5356 20.9433 41.3842ZM29.7028 41.3614C29.7028 41.0828 29.6967 40.8491 29.704 40.6157C29.724 39.9712 30.0403 39.6571 30.6873 39.6378C30.9054 39.6314 31.1237 39.6365 31.3419 39.6365C32.7938 39.6365 34.2456 39.6365 35.7283 39.6365C35.7026 39.4414 35.6947 39.2967 35.6634 39.157C35.0552 36.4498 32.6467 34.4464 29.8731 34.4054C27.4371 34.3695 24.9997 34.3709 22.5635 34.4044C19.7843 34.4425 17.3799 36.4262 16.7557 39.136C16.7213 39.2857 16.7187 39.4429 16.6988 39.6194C16.8535 39.6264 16.9609 39.6356 17.0682 39.6358C18.5957 39.6368 20.1233 39.6327 21.6507 39.6382C22.3968 39.641 22.7006 39.9536 22.7116 40.7039C22.7146 40.9159 22.712 41.1279 22.712 41.3614H29.7028Z" fill="#ffc800"/>
<path d="M43.2733 6.43253C45.3847 6.43253 47.4962 6.42963 49.6076 6.43345C51.3186 6.43662 52.4153 7.52256 52.4195 9.22309C52.4251 11.4438 52.4253 13.6644 52.4193 15.885C52.415 17.5591 51.3199 18.6605 49.6512 18.6638C46.5023 18.6698 43.3533 18.6542 40.2046 18.6799C39.8108 18.6832 39.3786 18.8106 39.0329 19.0037C37.8749 19.651 36.7508 20.3587 35.6084 21.0344C34.714 21.5636 34.0733 21.192 34.0726 20.1441C34.0697 16.4857 34.0671 12.8271 34.0736 9.16849C34.0765 7.54139 35.1921 6.43882 36.8299 6.43415C38.9776 6.42786 41.1255 6.43253 43.2733 6.43253ZM35.8189 18.8661C36.6852 18.3498 37.4555 17.9082 38.2074 17.437C38.7972 17.0675 39.4225 16.9091 40.1185 16.9121C43.2642 16.9255 46.4101 16.9196 49.5559 16.917C50.3725 16.9162 50.6711 16.6155 50.6723 15.7958C50.6754 13.6319 50.6753 11.468 50.6725 9.30408C50.6712 8.48227 50.3741 8.18152 49.559 8.18107C45.3585 8.17887 41.1581 8.17923 36.9574 8.18094C36.1076 8.18122 35.8202 8.47333 35.8197 9.3335C35.818 12.3339 35.8189 15.3342 35.8189 18.3347V18.8661Z" fill="#ffc800"/>
<path d="M26.1998 30.8958C22.3235 30.8863 19.2052 27.7443 19.2176 23.8608C19.2301 20.025 22.3763 16.9149 26.2405 16.9185C30.0655 16.9219 33.2136 20.0946 33.1968 23.9286C33.1798 27.7818 30.043 30.9053 26.1998 30.8958ZM20.9654 23.9077C20.9646 26.7937 23.329 29.159 26.206 29.1501C29.0974 29.1411 31.4392 26.7986 31.4485 23.9061C31.4576 21.0288 29.089 18.6612 26.2061 18.666C23.3128 18.6708 20.9662 21.0177 20.9654 23.9077Z" fill="#ffc800"/>
<path d="M38.9261 13.4121C38.726 13.4121 38.5205 13.4414 38.3269 13.4062C37.8577 13.3208 37.5746 13.0269 37.5779 12.5432C37.5812 12.0602 37.865 11.7593 38.3374 11.6916C38.6409 11.6484 38.9554 11.6667 39.264 11.679C39.8203 11.7014 40.1864 12.058 40.1831 12.5537C40.1799 13.0472 39.8112 13.3925 39.2535 13.4209C39.1447 13.4264 39.0352 13.4218 38.9261 13.4218V13.4121Z" fill="#ffc800"/>
<path d="M43.2122 13.4152C43.0485 13.4152 42.8812 13.4373 42.7218 13.4111C42.2502 13.3341 41.9725 13.0517 41.9433 12.5693C41.9163 12.1171 42.2589 11.7327 42.734 11.6864C43.0225 11.6583 43.3161 11.6682 43.6067 11.6779C44.1706 11.6971 44.5396 12.0345 44.5523 12.5275C44.5653 13.0391 44.1818 13.3981 43.5944 13.4216C43.4671 13.4266 43.3396 13.4223 43.2122 13.4223V13.4152Z" fill="#ffc800"/>
<path d="M47.5707 13.4173C47.425 13.4179 47.2783 13.4301 47.1343 13.4156C46.6491 13.3663 46.3148 13.0143 46.3089 12.5591C46.303 12.104 46.633 11.7272 47.1133 11.6863C47.4384 11.6587 47.7691 11.6602 48.0948 11.6844C48.5806 11.7207 48.915 12.0823 48.921 12.5378C48.927 12.9908 48.5948 13.3609 48.116 13.4134C47.9364 13.4333 47.7525 13.4167 47.5707 13.4173Z" fill="#ffc800"/>
</svg>
