<svg width="55" height="55" viewBox="0 0 55 55" fill="none" xmlns="http://www.w3.org/2000/svg">
<path d="M42.2002 45.8H39.5125C39.5125 44.3118 39.5615 41.6265 39.5615 38.4125C39.5615 33.4703 37.307 30.1608 31.9806 27.4731C37.1137 24.8833 39.5125 21.5248 39.5125 17.109V7.99328H42.2468C43.0154 7.99328 43.5906 7.36909 43.5906 6.64943C43.5906 5.88131 42.9664 5.30558 42.2468 5.30558L15.044 5.3075C14.2759 5.3075 13.7002 5.93169 13.7002 6.65135C13.7002 7.41995 14.3244 7.9952 15.044 7.9952H17.8272V17.1109C17.8272 21.5244 20.1772 24.8363 25.3126 27.475C20.0351 30.1608 17.8272 33.4703 17.8272 38.4125C17.8272 41.6265 17.8272 44.3142 17.8761 45.8H15.093C14.3244 45.8 13.7491 46.4242 13.7491 47.1439C13.7491 47.912 14.3733 48.4877 15.093 48.4877H42.2002C42.9683 48.4877 43.5441 47.8635 43.5441 47.1439C43.5441 46.3772 42.9199 45.8 42.2002 45.8ZM20.5614 17.1109V7.9952H36.7294V17.1109C36.7294 19.7007 35.8187 23.0592 28.6221 25.9868C21.4255 23.0107 20.5614 19.7007 20.5614 17.1109ZM20.5144 38.412C20.5144 34.6692 21.8583 31.7441 28.6216 28.9609C35.3874 31.7441 36.7778 34.6227 36.7778 38.412C36.7778 41.626 36.7778 44.3137 36.7294 45.7996H20.5614C20.5614 44.3132 20.5144 41.626 20.5144 38.412Z" fill="#ffc800"/>
</svg>
