<svg width="54" height="54" viewBox="0 0 54 54" fill="none" xmlns="http://www.w3.org/2000/svg">
<path d="M27.5228 46.082C38.1562 46.082 46.7777 37.4511 46.7777 26.8026C46.7777 16.1547 38.1562 7.52382 27.5228 7.52382C16.8894 7.52382 8.26788 16.1547 8.26788 26.8026C8.26788 37.4511 16.8894 46.082 27.5228 46.082ZM27.5228 48.9994C15.2774 48.9994 5.35046 39.0615 5.35046 26.8026C5.35046 14.5443 15.2774 4.6064 27.5228 4.6064C39.7682 4.6064 49.6951 14.5443 49.6951 26.8026C49.6951 39.0615 39.7682 48.9994 27.5228 48.9994Z" fill="#ffc800"/>
<path d="M25.2064 12.5182C25.2064 11.6653 25.8978 10.9739 26.7506 10.9739C27.6035 10.9739 28.2949 11.6653 28.2949 12.5182V26.4168C28.2949 27.2697 27.6035 27.9611 26.7506 27.9611C25.8978 27.9611 25.2064 27.2697 25.2064 26.4168V12.5182Z" fill="#ffc800"/>
<path d="M37.5606 24.8725C38.4135 24.8725 39.1049 25.5639 39.1049 26.4168C39.1049 27.2697 38.4135 27.9611 37.5606 27.9611H26.7507C25.8978 27.9611 25.2064 27.2697 25.2064 26.4168C25.2064 25.5639 25.8978 24.8725 26.7507 24.8725H37.5606Z" fill="#ffc800"/>
</svg>
