<svg preserveAspectRatio="none" width="100%" height="100%" overflow="visible" style="display: block;" viewBox="0 0 32 32" fill="none" xmlns="http://www.w3.org/2000/svg">
<g id="Frame">
<path id="Vector" d="M7 13C7 11.0222 7.58649 9.08879 8.6853 7.4443C9.78412 5.79981 11.3459 4.51808 13.1732 3.7612C15.0004 3.00433 17.0111 2.80629 18.9509 3.19215C20.8907 3.578 22.6725 4.53041 24.0711 5.92893C25.4696 7.32746 26.422 9.10929 26.8079 11.0491C27.1937 12.9889 26.9957 14.9996 26.2388 16.8268C25.4819 18.6541 24.2002 20.2159 22.5557 21.3147C20.9112 22.4135 18.9778 23 17 23C14.3487 22.997 11.8069 21.9425 9.93222 20.0678C8.0575 18.1931 7.00298 15.6513 7 13ZM25.3075 21.66C23.0432 23.8399 20.0139 25.0444 16.871 25.0145C13.728 24.9847 10.7222 23.7228 8.49967 21.5003C6.27715 19.2778 5.01535 16.272 4.98549 13.129C4.95564 9.98607 6.16011 6.95684 8.34 4.6925C8.43334 4.59827 8.50699 4.48641 8.55669 4.36344C8.60638 4.24047 8.63111 4.10884 8.62945 3.97622C8.62779 3.8436 8.59976 3.71264 8.54699 3.59095C8.49423 3.46927 8.41778 3.3593 8.32211 3.26744C8.22644 3.17558 8.11345 3.10367 7.98972 3.0559C7.86599 3.00812 7.734 2.98544 7.60142 2.98917C7.46884 2.9929 7.33833 3.02296 7.21748 3.07761C7.09663 3.13226 6.98786 3.21041 6.8975 3.3075C5.05668 5.22632 3.80038 7.6297 3.27558 10.2364C2.75078 12.8432 2.9792 15.5455 3.9341 18.0271C4.889 20.5088 6.53089 22.6672 8.66767 24.2498C10.8045 25.8324 13.3478 26.7738 16 26.9638V29H13C12.7348 29 12.4804 29.1054 12.2929 29.2929C12.1054 29.4804 12 29.7348 12 30C12 30.2652 12.1054 30.5196 12.2929 30.7071C12.4804 30.8946 12.7348 31 13 31H21C21.2652 31 21.5196 30.8946 21.7071 30.7071C21.8946 30.5196 22 30.2652 22 30C22 29.7348 21.8946 29.4804 21.7071 29.2929C21.5196 29.1054 21.2652 29 21 29H18V26.965C21.2615 26.7397 24.3393 25.3721 26.6925 23.1025C26.7896 23.0121 26.8677 22.9034 26.9224 22.7825C26.977 22.6617 27.0071 22.5312 27.0108 22.3986C27.0146 22.266 26.9919 22.134 26.9441 22.0103C26.8963 21.8866 26.8244 21.7736 26.7326 21.6779C26.6407 21.5822 26.5307 21.5058 26.409 21.453C26.2874 21.4002 26.1564 21.3722 26.0238 21.3706C25.8912 21.3689 25.7595 21.3936 25.6366 21.4433C25.5136 21.493 25.4017 21.5667 25.3075 21.66Z" fill="var(--fill-0, #FFC800)"/>
</g>
</svg>
