<svg xmlns="http://www.w3.org/2000/svg" width="20.637" height="18.343" viewBox="0 0 20.637 18.343">
  <g id="noun-alert-6996009" transform="translate(-1.294 -6.692)">
    <path id="Trazado_1080" data-name="Trazado 1080" d="M21.685,22.388,13.138,7.575a1.767,1.767,0,0,0-3.059,0L1.532,22.388a1.765,1.765,0,0,0,1.53,2.647h17.1a1.765,1.765,0,0,0,1.53-2.647Zm-1.018,1.176a.578.578,0,0,1-.512.295H3.055a.587.587,0,0,1-.512-.295.574.574,0,0,1,0-.588L11.1,8.164a.592.592,0,0,1,1.024,0l8.554,14.813a.574.574,0,0,1,0,.588ZM11.02,18.217V12.922a.588.588,0,1,1,1.176,0v5.294a.588.588,0,0,1-1.176,0Zm1.471,2.647a.883.883,0,1,1-.883-.883A.881.881,0,0,1,12.491,20.864Z"/>
  </g>
</svg>
