<svg xmlns="http://www.w3.org/2000/svg" width="16" height="16" viewBox="0 0 16 16">
  <g id="noun_Check_3496109" transform="translate(-1 -1)">
    <g id="Layer_2" data-name="Layer 2" transform="translate(1 1)">
      <path id="Trazado_12" data-name="Trazado 12" d="M9,17A8,8,0,1,0,1,9a8,8,0,0,0,8,8ZM4.847,9.211a.727.727,0,0,1,1.025,0l1.673,1.673,4.211-4.211A.727.727,0,0,1,12.782,7.7L8.055,12.425a.727.727,0,0,1-1.025,0L4.847,10.244a.727.727,0,0,1,0-1.033Z" transform="translate(-1 -1)" fill="#edb107"/>
    </g>
  </g>
</svg>
