<svg xmlns="http://www.w3.org/2000/svg" width="20.246" height="23.563" viewBox="0 0 20.246 23.563">
  <g id="noun-map-location-8225326" transform="translate(-10.62 -4.164)">
    <path id="Trazado_1072" data-name="Trazado 1072" d="M30.866,47.291V35.529a.4.4,0,0,0-.572-.363l-6.3,2.959-.645-.3a.4.4,0,0,0-.341.727l.584.274V49.7L17.9,47.024V39.38a.4.4,0,1,0-.8,0v7.655L11.424,49.7V38.823l5.148-2.417a.4.4,0,0,0-.341-.727L10.851,38.2a.4.4,0,0,0-.231.363V50.33a.4.4,0,0,0,.572.363l6.315-2.965,6.315,2.965c.013.006.026.009.04.014s.02.008.03.01a.384.384,0,0,0,.1.014.424.424,0,0,0,.1-.014l.03-.01c.013-.005.027-.008.04-.014l6.472-3.039a.4.4,0,0,0,.231-.363Zm-.8-.255L24.394,49.7V38.823l5.669-2.662Z" transform="translate(0 -23.004)" fill="#060606"/>
    <path id="Trazado_1073" data-name="Trazado 1073" d="M31.543,8.534c0,3.359,3.915,7.429,4.082,7.6a.4.4,0,0,0,.288.121.4.4,0,0,0,.288-.121c.167-.172,4.082-4.241,4.082-7.6a4.37,4.37,0,0,0-8.74,0Zm7.935,0c0,2.537-2.671,5.73-3.567,6.728-.9-1-3.567-4.191-3.567-6.728a3.567,3.567,0,1,1,7.133,0Z" transform="translate(-15.545)" fill="#060606"/>
    <path id="Trazado_1074" data-name="Trazado 1074" d="M40.09,14.884a2.173,2.173,0,1,0,2.173-2.173A2.176,2.176,0,0,0,40.09,14.884Zm3.542,0a1.37,1.37,0,1,1-1.37-1.37A1.371,1.371,0,0,1,43.632,14.884Z" transform="translate(-21.895 -6.35)" fill="#060606"/>
  </g>
</svg>
