<svg xmlns="http://www.w3.org/2000/svg" width="22.511" height="16.767" viewBox="0 0 22.511 16.767">
  <g id="noun-file-7670746" transform="translate(0 -12.758)">
    <path id="Trazado_1076" data-name="Trazado 1076" d="M1.76,12.758A1.765,1.765,0,0,0,0,14.516V27.768a1.764,1.764,0,0,0,1.76,1.757H20.753a1.762,1.762,0,0,0,1.758-1.757V15.921a1.676,1.676,0,0,0-1.669-1.673H9.462l-.128-.366a1.676,1.676,0,0,0-1.581-1.125Zm0,.7H7.753a.967.967,0,0,1,.916.652L9.807,17.4a.351.351,0,0,0,.332.237H21.807V27.768a1.05,1.05,0,0,1-1.053,1.057H1.76A1.053,1.053,0,0,1,.7,27.768V14.516A1.051,1.051,0,0,1,1.76,13.462ZM9.7,14.952H20.842a.962.962,0,0,1,.966.969v1.013H10.391Z"/>
  </g>
</svg>
