<svg xmlns="http://www.w3.org/2000/svg" width="18" height="24" viewBox="0 0 18 24">
  <g id="noun_notes_1619512" transform="translate(-3)">
    <path id="Trazado_15" data-name="Trazado 15" d="M20.5,2h-4V.5a.5.5,0,1,0-1,0V2h-3V.5a.5.5,0,1,0-1,0V2h-3V.5a.5.5,0,1,0-1,0V2h-4a.5.5,0,0,0-.5.5v21a.5.5,0,0,0,.5.5h17a.5.5,0,0,0,.5-.5V2.5A.5.5,0,0,0,20.5,2ZM20,23H4V3H7.5v.5a.5.5,0,0,0,1,0V3h3v.5a.5.5,0,0,0,1,0V3h3v.5a.5.5,0,0,0,1,0V3H20Z" fill="#060606"/>
    <path id="Trazado_16" data-name="Trazado 16" d="M16.5,7h-9a.5.5,0,0,0,0,1h9a.5.5,0,0,0,0-1Z" fill="#060606"/>
    <path id="Trazado_17" data-name="Trazado 17" d="M16.5,11h-9a.5.5,0,0,0,0,1h9a.5.5,0,0,0,0-1Z" fill="#060606"/>
    <path id="Trazado_18" data-name="Trazado 18" d="M16.5,15h-9a.5.5,0,0,0,0,1h9a.5.5,0,0,0,0-1Z" fill="#060606"/>
    <path id="Trazado_19" data-name="Trazado 19" d="M11.5,19h-4a.5.5,0,0,0,0,1h4a.5.5,0,0,0,0-1Z" fill="#060606"/>
  </g>
</svg>
