<svg xmlns="http://www.w3.org/2000/svg" width="25.534" height="20.668" viewBox="0 0 25.534 20.668">
  <g id="noun-laptop-8095351" transform="translate(-4.285 -12.996)">
    <path id="Trazado_1078" data-name="Trazado 1078" d="M7.288,13a.4.4,0,0,0-.4.4V26.352L4.311,33.124h0a.4.4,0,0,0,.374.539H29.422a.4.4,0,0,0,.371-.539l-2.577-6.772V13.4a.4.4,0,0,0-.4-.4Zm.4.8H26.418V26.027H7.685ZM7.561,26.825h18.98l2.3,6.041H21.068l-.782-2.58h0A.4.4,0,0,0,19.905,30H14.2a.4.4,0,0,0-.383.283l-.782,2.58H5.261ZM14.495,30.8h5.113l.627,2.065H13.867Z" fill="#060606"/>
  </g>
</svg>
