<svg xmlns="http://www.w3.org/2000/svg" width="44" height="44" viewBox="0 0 44 44">
  <g id="Grupo_12" data-name="Grupo 12" transform="translate(-864 -669)">
    <circle id="Elipse_7" data-name="Elipse 7" cx="22" cy="22" r="22" transform="translate(864 669)" fill="#edb107"/>
    <g id="noun_Medal_1453760" transform="translate(873.784 676.953)">
      <path id="Trazado_13" data-name="Trazado 13" d="M30.642,2.165a.631.631,0,0,0,.013-.067.655.655,0,0,0,.007-.074c0-.01,0-.02,0-.031s0-.021,0-.032,0-.049-.007-.074-.008-.044-.013-.065-.012-.043-.02-.064A.624.624,0,0,0,30.6,1.7c-.01-.02-.02-.04-.032-.059s-.023-.038-.036-.056a.587.587,0,0,0-.044-.053.645.645,0,0,0-.047-.048.628.628,0,0,0-.051-.042.669.669,0,0,0-.061-.041L30.3,1.38c-.01-.005-.02-.007-.029-.012s-.045-.02-.068-.028-.043-.014-.065-.02l-.064-.013c-.026,0-.051-.007-.076-.008l-.03,0h-7.7c-.016,0-.031,0-.048,0l-.042,0a.616.616,0,0,0-.094.019l-.036.011a.732.732,0,0,0-.088.036l-.035.02a.7.7,0,0,0-.077.05l-.034.029a.638.638,0,0,0-.065.063l-.029.034a.72.72,0,0,0-.053.08c0,.007-.009.012-.012.018L18.4,7.673,15.158,1.664c0-.007-.009-.012-.013-.019a.714.714,0,0,0-.053-.079c-.009-.011-.018-.022-.027-.033A.743.743,0,0,0,15,1.468l-.032-.026a.7.7,0,0,0-.08-.053l-.033-.018a.692.692,0,0,0-.09-.037l-.035-.011a.686.686,0,0,0-.093-.019l-.044,0c-.016,0-.031,0-.047,0h-7.7l-.029,0c-.026,0-.051,0-.077.008a.58.58,0,0,0-.064.013.639.639,0,0,0-.064.02c-.024.009-.047.018-.069.029L6.51,1.38c-.009.005-.017.012-.026.018a.638.638,0,0,0-.062.042.62.62,0,0,0-.05.041c-.017.016-.033.032-.048.049s-.029.033-.042.051-.026.038-.037.057-.022.038-.031.057a.639.639,0,0,0-.026.064c-.007.021-.014.042-.02.063s-.009.043-.013.065a.654.654,0,0,0-.008.074c0,.011,0,.02,0,.032s0,.02,0,.03a.5.5,0,0,0,.007.075c0,.022.007.044.013.065s.012.043.02.064.018.047.029.069.007.019.012.028l6.539,12.1a8.953,8.953,0,1,0,11.277,0l6.538-12.1c0-.009.007-.018.011-.027a.749.749,0,0,0,.03-.072C30.63,2.206,30.636,2.186,30.642,2.165Zm-22.63.527h6.115l3.656,6.767.007.013,1.627,3.011a9.005,9.005,0,0,0-1.014-.061,8.885,8.885,0,0,0-4.48,1.214Zm17.95,18.683A7.557,7.557,0,1,1,18.4,13.818,7.566,7.566,0,0,1,25.962,21.375Zm-4.743-8.493L19.2,9.141l3.484-6.449H28.8L22.886,13.636A8.9,8.9,0,0,0,21.219,12.882Z" transform="translate(-6.144 -1.296)" fill="#060606"/>
      <path id="Trazado_14" data-name="Trazado 14" d="M31.2,36.784l-2.378-.345-1.064-2.156a.7.7,0,0,0-1.251,0l-1.064,2.156-2.378.345a.7.7,0,0,0-.387,1.19L24.4,39.652,24,42.02a.7.7,0,0,0,1.013.736l2.128-1.119,2.127,1.119a.7.7,0,0,0,1.013-.736l-.407-2.369,1.721-1.677a.7.7,0,0,0-.387-1.19Zm-2.571,2.125a.7.7,0,0,0-.2.618l.229,1.336-1.2-.631a.7.7,0,0,0-.649,0l-1.2.631.229-1.336a.7.7,0,0,0-.2-.618l-.971-.947,1.342-.195a.7.7,0,0,0,.526-.381l.6-1.216.6,1.216a.7.7,0,0,0,.525.381l1.342.195Z" transform="translate(-14.876 -18.73)" fill="#060606"/>
    </g>
  </g>
</svg>
