<svg xmlns="http://www.w3.org/2000/svg" width="23.202" height="21.241" viewBox="0 0 23.202 21.241">
  <g id="noun-chatting-5884122" transform="translate(-8.144 -10.17)">
    <circle id="Elipse_8" data-name="Elipse 8" cx="0.484" cy="0.484" r="0.484" transform="translate(13.088 22.695)" fill="#060606" stroke="#060606" stroke-width="0.2"/>
    <circle id="Elipse_9" data-name="Elipse 9" cx="0.484" cy="0.484" r="0.484" transform="translate(21.29 22.695)" fill="#060606" stroke="#060606" stroke-width="0.2"/>
    <circle id="Elipse_10" data-name="Elipse 10" cx="0.484" cy="0.484" r="0.484" transform="translate(17.189 22.695)" fill="#060606" stroke="#060606" stroke-width="0.2"/>
    <path id="Trazado_1079" data-name="Trazado 1079" d="M30.124,10.27h-16.7A1.123,1.123,0,0,0,12.3,11.392v4.063a.363.363,0,0,0,.726,0V11.392a.4.4,0,0,1,.4-.4h16.7a.4.4,0,0,1,.4.4V24.04l-3.332-1.948V17.666a1.123,1.123,0,0,0-1.122-1.122H9.366a1.123,1.123,0,0,0-1.122,1.122V30.947a.363.363,0,0,0,.547.313l3.8-2.225h8.937a.363.363,0,1,0,0-.726H12.5a.366.366,0,0,0-.183.05L8.97,30.314V17.666a.4.4,0,0,1,.4-.4h16.7a.4.4,0,0,1,.4.4V27.914a.4.4,0,0,1-.4.4H22.985a.363.363,0,0,0,0,.726h3.081a1.123,1.123,0,0,0,1.122-1.122v-4.98L30.7,24.986a.363.363,0,0,0,.547-.313V11.392A1.123,1.123,0,0,0,30.124,10.27Z" fill="#060606" stroke="#060606" stroke-width="0.2"/>
  </g>
</svg>
