<svg xmlns="http://www.w3.org/2000/svg" width="23.002" height="23.007" viewBox="0 0 23.002 23.007">
  <g id="noun-arrow-target-891492_2_" data-name="noun-arrow-target-891492 (2)" transform="translate(-6 -5.999)">
    <g id="Grupo_19" data-name="Grupo 19" transform="translate(6 5.999)">
      <path id="Trazado_1030" data-name="Trazado 1030" d="M25.853,6a.523.523,0,0,0-.351.155l-3.66,3.66a.523.523,0,0,0-.155.368v2.394L20.24,14.022a6.21,6.21,0,1,0,.743.735l1.438-1.438h1.1a9.169,9.169,0,1,1-3.619-2.876.523.523,0,0,0,.425-.956,10.187,10.187,0,1,0,4.461,3.832h.033a.523.523,0,0,0,.368-.155l3.66-3.66a.523.523,0,0,0-.368-.891H26.392V6.522A.523.523,0,0,0,25.853,6ZM25.346,7.78V8.916L22.732,11.53V10.395Zm.735,1.879h1.144l-2.614,2.614H23.467ZM16.2,13.581A5.2,5.2,0,0,1,19.5,14.757l-2.059,2.059a2.4,2.4,0,1,0,.735.743L20.24,15.5a5.226,5.226,0,1,1-4.044-1.92Zm0,3.922a1.321,1.321,0,0,1,.474.09l-.841.841a.523.523,0,1,0,.735.744l.85-.85a1.325,1.325,0,0,1,.09.482A1.307,1.307,0,1,1,16.2,17.5Z" transform="translate(-6 -5.999)" fill="#060606"/>
    </g>
  </g>
</svg>
