<svg xmlns="http://www.w3.org/2000/svg" width="60" height="59" viewBox="0 0 60 59">
  <g id="Grupo_9" data-name="Grupo 9" transform="translate(-333 -390)">
    <g id="Elipse_2" data-name="Elipse 2" transform="translate(333 390)" fill="#1f262f" stroke="#3c4045" stroke-width="1">
      <ellipse cx="30" cy="29.5" rx="30" ry="29.5" stroke="none"/>
      <ellipse cx="30" cy="29.5" rx="29.5" ry="29" fill="none"/>
    </g>
    <g id="noun-arrow-target-891492_1_" data-name="noun-arrow-target-891492 (1)" transform="translate(341.752 396.001)">
      <g id="Grupo_6" data-name="Grupo 6" transform="translate(6 5.999)">
        <path id="Trazado_9" data-name="Trazado 9" d="M34.691,6a.756.756,0,0,0-.508.224l-5.289,5.289a.756.756,0,0,0-.224.531V15.5l-2.09,2.09a8.974,8.974,0,1,0,1.074,1.063l2.078-2.078h1.594a13.251,13.251,0,1,1-5.23-4.156.756.756,0,0,0,.614-1.381,14.722,14.722,0,1,0,6.447,5.537H33.2a.756.756,0,0,0,.531-.224l5.289-5.289a.756.756,0,0,0-.531-1.287H35.47V6.755A.756.756,0,0,0,34.691,6Zm-.732,2.574v1.641L30.18,13.993V12.351Zm1.063,2.716h1.653L32.9,15.067H31.243ZM20.735,16.956a7.519,7.519,0,0,1,4.782,1.7l-2.975,2.975A3.473,3.473,0,1,0,23.6,22.706l2.975-2.975a7.552,7.552,0,1,1-5.844-2.775Zm0,5.667a1.91,1.91,0,0,1,.685.13L20.2,23.969a.756.756,0,1,0,1.063,1.075l1.228-1.228a1.915,1.915,0,0,1,.13.7,1.889,1.889,0,1,1-1.889-1.889Z" transform="translate(-6 -5.999)" fill="#fff"/>
      </g>
    </g>
  </g>
</svg>
