<svg xmlns="http://www.w3.org/2000/svg" width="24.288" height="22.288" viewBox="0 0 24.288 22.288">
  <g id="noun-claim-944743" transform="translate(-6.958 -9)">
    <g id="Grupo_11" data-name="Grupo 11" transform="translate(6.958 9)">
      <path id="Trazado_1075" data-name="Trazado 1075" d="M31.1,30.46a16.907,16.907,0,0,0-11.517-4.952V15.789h7.274a.485.485,0,0,0,.4-.754L25.5,12.395l1.76-2.641a.485.485,0,0,0-.4-.754H19.1a.485.485,0,0,0-.485.485V25.508A16.908,16.908,0,0,0,7.1,30.46a.485.485,0,1,0,.686.686,16.023,16.023,0,0,1,22.632,0,.485.485,0,0,0,.686-.686ZM24.518,12.126a.485.485,0,0,0,0,.538l1.437,2.156H19.587V9.97h6.368Z" transform="translate(-6.958 -9)"/>
    </g>
  </g>
</svg>
