<svg xmlns="http://www.w3.org/2000/svg" width="22.599" height="25.532" viewBox="0 0 22.599 25.532">
  <g id="noun-room-5801657" transform="translate(-26.85 -23.838)">
    <path id="Trazado_1077" data-name="Trazado 1077" d="M38.02,24,49.3,28.563V44.645L38.02,49.208,27,44.643V38.479h.485v2.752l10.294-4.263V24.624l-1.59.658L36,24.835Zm.243.621V36.966l2.852,1.154V30.732l5.1,2.031v7.421l2.595,1.05V28.889ZM48.394,41.586l-10.372-4.2-10.131,4.2,10.131,3.949Zm-20.91.361L38.02,46.054l10.794-4.11v2.374L38.022,48.684,27.485,44.32Zm18.25-1.959v-6.9L41.6,31.446v6.869ZM34.264,26.079l-2.823,1.169-.186-.447,2.823-1.169Zm-6.78,2.808,1.9-.788-.186-.447-2.2.912v2.525h.485Zm0,4.04v3.414H27V32.927Z" transform="translate(0)" fill="#c8910c" stroke="#c8910c" stroke-width="0.3" fill-rule="evenodd"/>
  </g>
</svg>
