<?xml version="1.0" encoding="UTF-8"?>
<svg id="Capa_1" data-name="Capa 1" xmlns="http://www.w3.org/2000/svg" viewBox="0 0 52.09 60.02">
  <defs>
    <style>
      .cls-1 {
        fill-rule: evenodd;
      }

      .cls-1, .cls-2 {
        fill: #ffc800;
      }
    </style>
  </defs>
  <g id="Grupo_21304" data-name="Grupo 21304">
    <g id="Grupo_21303" data-name="Grupo 21303">
      <g id="Grupo_21302" data-name="Grupo 21302">
        <g id="Grupo_21301" data-name="Grupo 21301">
          <g id="Grupo_21299" data-name="Grupo 21299">
            <path id="Trazado_14755" data-name="Trazado 14755" class="cls-2" d="M26.04.65C12.01.65.62,13.81.62,30.01s11.39,29.36,25.42,29.36,25.42-13.16,25.42-29.36S40.08.65,26.04.65ZM26.04,57.65c-13.22,0-23.91-12.37-23.91-27.64S12.84,2.37,26.04,2.37s23.91,12.37,23.91,27.64-10.71,27.65-23.91,27.64ZM26.04,4.04C13.61,4.04,3.55,15.67,3.55,30.03s10.06,25.99,22.5,25.99,22.5-11.65,22.5-25.99S38.48,4.04,26.04,4.04ZM26.04,54.35c-11.62,0-21.05-10.88-21.05-24.32S14.43,5.72,26.04,5.72s21.06,10.88,21.06,24.31-9.43,24.32-21.06,24.32Z"/>
            <path id="Trazado_14756" data-name="Trazado 14756" class="cls-2" d="M26.04,4.02C13.61,4.02,3.55,15.64,3.55,30.01s10.06,25.99,22.5,25.99,22.5-11.65,22.5-25.99S38.48,4.02,26.04,4.02ZM26.04,54.32c-11.62,0-21.05-10.88-21.05-24.32S14.43,5.69,26.04,5.69s21.06,10.88,21.06,24.32c0,13.41-9.43,24.31-21.06,24.31h0Z"/>
            <g id="Grupo_21298" data-name="Grupo 21298">
              <path id="Trazado_14757" data-name="Trazado 14757" class="cls-1" d="M8.64,40.35h1v-.67s.02-.07.07-.07h.99v-.67s.02-.07.06-.07c0,0,.01,0,.02,0h1.24l-.04-10.53h-.44v-.41h.44v-.86s.02-.08.05-.12c.03-.03.08-.05.12-.05h27.75c.09,0,.17.06.17.15,0,0,0,0,0,0v.86h.48v.41h-.48l.04,10.53h1.24s.07.02.07.07v.67h.97s.07.02.07.07v.67h.99s.07.02.07.07v.72H8.57v-.72s.02-.07.07-.07ZM33.77,38.87h3.5l-.04-10.52h-.6v-.41h-2.3v.41h-.6l.04,10.52ZM27.47,38.87h3.5l-.04-10.52h-.6v-.41h-2.31v.41h-.6l.04,10.52ZM21.16,38.87h3.5l-.04-10.52h-.6v-.41h-2.31v.41h-.6l.05,10.52ZM17.76,38.87h.6l-.04-10.52h-.6v-.41h-2.31v.41h-.6l.04,10.52h2.91Z"/>
              <path id="Trazado_14758" data-name="Trazado 14758" class="cls-1" d="M40.55,24.44v.42h-.48v1.76H11.98v-1.76h-.44v-.43h29.01ZM34.38,25.94c0,.06.05.1.11.1h2c.06,0,.1-.04.11-.1v-.81c0-.06-.04-.1-.1-.1,0,0,0,0,0,0h-2c-.06,0-.1.04-.11.09,0,0,0,0,0,0v.81ZM28.08,25.94c0,.06.05.1.11.1h2c.06,0,.1-.04.11-.1v-.81c0-.06-.04-.1-.1-.1,0,0,0,0,0,0h-2c-.06,0-.1.04-.11.09,0,0,0,0,0,0v.81ZM21.77,25.94c0,.06.05.1.11.1h2c.06,0,.1-.04.11-.1v-.81c0-.06-.04-.1-.1-.1,0,0,0,0,0,0h-2c-.06,0-.1.04-.11.09,0,0,0,0,0,0v.81ZM15.47,25.94c0,.06.05.1.11.1h2c.06,0,.1-.04.11-.1v-.81c0-.06-.04-.1-.1-.1,0,0,0,0,0,0h-2c-.06,0-.1.04-.11.09,0,0,0,0,0,0v.81Z"/>
              <path id="Trazado_14759" data-name="Trazado 14759" class="cls-1" d="M9.94,23.47l16.14-4.58,16.06,4.58v.76H9.94v-.76Z"/>
            </g>
          </g>
        </g>
      </g>
    </g>
  </g>
</svg>